{"title":"Pier Paolo Pasolini's Accattone (1961) - 1080p x265 HEVC - ITA (","uid":13515012,"size":1423159274,"categoryP":"video","categoryS":"hd___movies","magnet":"?xt=urn:btih:90769f59622c9624590bfa065de5c51f7897ca3f&amp;dn=Pier+Paolo+Pasolini%27s+Accattone+%281961%29+-+1080p+x265+HEVC+-+ITA+%28&amp;tr=udp%3A%2F%2Ftracker.leechers-paradise.org%3A6969&amp;tr=udp%3A%2F%2Fzer0day.ch%3A1337&amp;tr=udp%3A%2F%2Fopen.demonii.com%3A1337&amp;tr=udp%3A%2F%2Ftracker.coppersurfer.tk%3A6969&amp;tr=udp%3A%2F%2Fexodus.desync.com%3A6969","seeders":5,"leechers":2,"uploader":"BRSHNKV","files":2,"time":1455319532,"description":"A pimp with no other means to provide for himself finds his life spiraling out of control when his prostitute is sent to prison.\r\n\r\nTechnical:\r\n\r\n\r\nFormat : MPEG-4\r\nFormat profile : Base Media / Version 2\r\nCodec ID : mp42\r\nFile size : 1.33 GiB\r\nDuration : 1h 56mn\r\nOverall bit rate mode : Variable\r\nOverall bit rate : 1 627 Kbps\r\nEncoded date : UTC 2016-02-11 21:01:30\r\nTagged date : UTC 2016-02-11 21:01:30\r\nWriting application : HandBrake 0.10.2 2015061100\r\n\r\nVideo\r\nID : 1\r\nFormat : HEVC\r\nFormat/Info : High Efficiency Video Coding\r\nFormat profile :   @Main\r\nCodec ID : hev1\r\nCodec ID/Info : High Efficiency Video Coding\r\nDuration : 1h 56mn\r\nBit rate : 1 501 Kbps\r\nWidth : 1 476 pixels\r\nHeight : 1 080 pixels\r\nDisplay aspect ratio : 4:3\r\nFrame rate mode : Constant\r\nFrame rate : 24.000 fps\r\nColor space : YUV\r\nChroma subsampling : 4:2:0\r\nBit depth : 8 bits\r\nBits/(Pixel*Frame) : 0.039\r\nStream size : 1.22 GiB (92%)\r\nWriting library : x265 1.5:[Mac OS X][clang 6.1.0][64 bit]\r\nEncoded date : UTC 2016-02-11 21:01:30\r\nTagged date : UTC 2016-02-11 21:01:30\r\nColor range : Limited\r\nColor primaries : BT.709\r\nTransfer characteristics : BT.709\r\nMatrix coefficients : BT.709\r\n\r\nAudio\r\nID : 2\r\nFormat : AAC\r\nFormat/Info : Advanced Audio Codec\r\nFormat profile : LC\r\nCodec ID : 40\r\nDuration : 1h 56mn\r\nBit rate mode : Variable\r\nBit rate : 120 Kbps\r\nChannel(s) : 2 channels\r\nChannel positions : Front: L R\r\nSampling rate : 48.0 KHz\r\nCompression mode : Lossy\r\nStream size : 100 MiB (7%)\r\nTitle : Stereo / Stereo\r\nLanguage : Italian\r\nEncoded date : UTC 2016-02-11 21:01:30\r\nTagged date : UTC 2016-02-11 21:01:30\r\n\r\nMenu\r\nID : 3\r\nCodec ID : text\r\nDuration : 1h 56mn\r\nLanguage : English\r\nEncoded date : UTC 2016-02-11 21:01:30\r\nTagged date : UTC 2016-02-11 21:01:30\r\nBit rate mode : CBR\r\n00:00:00.000 : 01\r\n00:02:18.750 : 02\r\n00:07:51.167 : 03\r\n00:12:11.583 : 04\r\n00:15:53.042 : 05\r\n00:21:16.625 : 06\r\n00:26:30.542 : 07\r\n00:36:03.375 : 08\r\n00:43:36.792 : 09\r\n00:49:45.958 : 10\r\n00:57:15.292 : 11\r\n01:04:09.542 : 12\r\n01:12:38.792 : 13\r\n01:20:29.125 : 14\r\n01:30:49.083 : 15\r\n01:35:32.458 : 16\r\n01:41:41.292 : 17\r\n01:48:15.042 : 18","torrent":{"xt":"urn:btih:90769f59622c9624590bfa065de5c51f7897ca3f","amp;dn":"Pier+Paolo+Pasolini%27s+Accattone+%281961%29+-+1080p+x265+HEVC+-+ITA+%28","amp;tr":["udp%3A%2F%2Ftracker.leechers-paradise.org%3A6969","udp%3A%2F%2Fzer0day.ch%3A1337","udp%3A%2F%2Fopen.demonii.com%3A1337","udp%3A%2F%2Ftracker.coppersurfer.tk%3A6969","udp%3A%2F%2Fexodus.desync.com%3A6969"],"infoHash":"90769f59622c9624590bfa065de5c51f7897ca3f","infoHashBuffer":{"type":"Buffer","data":[144,118,159,89,98,44,150,36,89,11,250,6,93,229,197,31,120,151,202,63]},"announce":[],"urlList":[]}}